<?xml version="1.0" encoding="utf-8"?>
<!-- Generator: Adobe Illustrator 27.5.0, SVG Export Plug-In . SVG Version: 6.00 Build 0)  -->
<svg version="1.1" xmlns="http://www.w3.org/2000/svg" xmlns:xlink="http://www.w3.org/1999/xlink" x="0px" y="0px"
	 viewBox="0 0 500 500" style="enable-background:new 0 0 500 500;" xml:space="preserve">
<g id="BACKGROUND">
	<linearGradient id="SVGID_1_" gradientUnits="userSpaceOnUse" x1="249.9996" y1="28.5996" x2="250.0014" y2="1082.2013">
		<stop  offset="0" style="stop-color:#FFF000"/>
		<stop  offset="1" style="stop-color:#F08D00"/>
	</linearGradient>
	<rect style="fill-rule:evenodd;clip-rule:evenodd;fill:url(#SVGID_1_);" width="500" height="500"/>
</g>
<g id="OBJECTS">
	<g>
		<g>
			
				<linearGradient id="SVGID_00000164483983239078485040000007060716366462526640_" gradientUnits="userSpaceOnUse" x1="128.5602" y1="198.4394" x2="107.0969" y2="187.9786">
				<stop  offset="0" style="stop-color:#584296"/>
				<stop  offset="1" style="stop-color:#090827"/>
			</linearGradient>
			<path style="fill-rule:evenodd;clip-rule:evenodd;fill:url(#SVGID_00000164483983239078485040000007060716366462526640_);" d="
				M95.665,192.988l-2.289,5.479c0,0-0.859,5.346,5.164,5.704c6.022,0.357,17.892,0.852,17.892,0.852s20.341-4.474,20.767-5.752
				c0.427-1.278-3.194-19.597-5.324-20.235C129.743,178.396,105.248,181.805,95.665,192.988z"/>
			
				<linearGradient id="SVGID_00000121263082215853245020000004350777583872713382_" gradientUnits="userSpaceOnUse" x1="325.938" y1="321.6249" x2="301.3682" y2="387.1567">
				<stop  offset="0" style="stop-color:#2B0C28"/>
				<stop  offset="1" style="stop-color:#E7350F"/>
			</linearGradient>
			<path style="fill-rule:evenodd;clip-rule:evenodd;fill:url(#SVGID_00000121263082215853245020000004350777583872713382_);" d="
				M393.269,307.317c0,0,14.975,18.49,15.897,22.157c5.079,20.194-19.561,32.542-36.743,32.542c-37.999,0-53.42,0-91.418,0
				c-6.302,0-14.379-5.155-17.947-11.457l-22.939-40.501h65.467v-11.426l68.508,6.39L393.269,307.317z"/>
			
				<linearGradient id="SVGID_00000048479642745095630390000013224076940962608297_" gradientUnits="userSpaceOnUse" x1="400.4254" y1="287.0097" x2="392.2589" y2="296.584">
				<stop  offset="0" style="stop-color:#9F1F24"/>
				<stop  offset="1" style="stop-color:#EE7A00"/>
			</linearGradient>
			<path style="fill-rule:evenodd;clip-rule:evenodd;fill:url(#SVGID_00000048479642745095630390000013224076940962608297_);" d="
				M405.998,281.04l5.323,4.635c0,0-1.915,7.4-3.939,9.955c-2.023,2.556-4.898,3.994-13.206,3.994
				c-8.306,0-2.661-18.957-2.661-18.957L405.998,281.04z"/>
			
				<linearGradient id="SVGID_00000068663390538812307400000015888018208655081916_" gradientUnits="userSpaceOnUse" x1="385.738" y1="133.4225" x2="206.1178" y2="249.2819">
				<stop  offset="0" style="stop-color:#FFF000"/>
				<stop  offset="1" style="stop-color:#F19100"/>
			</linearGradient>
			<path style="fill-rule:evenodd;clip-rule:evenodd;fill:url(#SVGID_00000068663390538812307400000015888018208655081916_);" d="
				M116.134,163.308l72.207-21.088c0.461-0.135,0.873-0.194,1.354-0.194H417.39c1.592,0,2.962,0.697,3.9,1.983
				c0.94,1.286,1.185,2.803,0.699,4.318l-42.174,131.846c-0.53,1.654-1.786,2.821-3.476,3.226l-224.072,53.676
				c-1.321,0.315-2.574,0.105-3.719-0.623c-1.146-0.73-1.867-1.775-2.139-3.106l-33.653-164.434
				C112.251,166.443,113.714,164.015,116.134,163.308z"/>
			
				<linearGradient id="SVGID_00000047776914101598410470000015520222322653401492_" gradientUnits="userSpaceOnUse" x1="254.7102" y1="337.7047" x2="254.7102" y2="308.5208">
				<stop  offset="0" style="stop-color:#FFF000"/>
				<stop  offset="1" style="stop-color:#CC301C"/>
			</linearGradient>
			<path style="fill-rule:evenodd;clip-rule:evenodd;fill:url(#SVGID_00000047776914101598410470000015520222322653401492_);" d="
				M388.713,252.359l-8.897,27.814c-0.53,1.654-1.786,2.821-3.476,3.226l-148.313,35.526l-84.695-0.619l-22.625-110.545
				l163.333-44.893c0.436-0.121,0.825-0.173,1.279-0.173h78.383c2.268,0,4.179,1.513,4.701,3.719L388.713,252.359z"/>
			
				<linearGradient id="SVGID_00000101800887058409089210000001834887374855380150_" gradientUnits="userSpaceOnUse" x1="325.9908" y1="57.9592" x2="173.7169" y2="166.4476">
				<stop  offset="0" style="stop-color:#FFF000"/>
				<stop  offset="1" style="stop-color:#DF6E06"/>
			</linearGradient>
			<path style="fill-rule:evenodd;clip-rule:evenodd;fill:url(#SVGID_00000101800887058409089210000001834887374855380150_);" d="
				M116.134,163.308l72.207-21.088c0.461-0.135,0.873-0.194,1.354-0.194h66.134l-2.061,7.764c-1.186,4.464-5.336,8.949-9.225,9.966
				l-126.871,33.182l-4.917-24.026C112.251,166.443,113.714,164.015,116.134,163.308z"/>
			<path style="fill-rule:evenodd;clip-rule:evenodd;fill:#FFFFFF;" d="M396.401,158.724l-82.991-24.237
				c-0.115-0.033-0.238-0.059-0.377-0.079c-0.093-0.014-0.218-0.02-0.382-0.02H94.391c-0.463,0-0.877,0.092-1.226,0.266l0.002,0.004
				c-0.369,0.189-0.692,0.465-0.952,0.819c-0.268,0.368-0.436,0.757-0.499,1.151c-0.065,0.403-0.029,0.833,0.111,1.27l48.47,151.525
				c0.144,0.44,0.382,0.809,0.692,1.097c0.361,0.334,0.827,0.581,1.366,0.737l214.095,61.689l0.004-0.011
				c0.313,0.092,0.616,0.108,0.896,0.061c0.354-0.06,0.709-0.207,1.057-0.429c0.328-0.209,0.593-0.457,0.786-0.74
				c0.191-0.276,0.327-0.609,0.406-0.991l38.678-188.989c0.141-0.685,0.005-1.368-0.333-1.93
				C397.605,159.356,397.067,158.917,396.401,158.724L396.401,158.724z M315.002,128.995l82.991,24.236
				c2.114,0.616,3.808,1.982,4.86,3.727c1.053,1.747,1.469,3.88,1.029,6.034l-38.68,188.987c-0.234,1.147-0.67,2.184-1.302,3.099
				c-0.626,0.908-1.435,1.682-2.422,2.311c-1.003,0.638-2.071,1.07-3.188,1.258c-1.118,0.188-2.261,0.135-3.408-0.195l0.003-0.01
				l-214.101-61.691c-1.419-0.409-2.678-1.092-3.698-2.038c-1.012-0.938-1.781-2.123-2.235-3.541L86.38,139.624
				c-0.417-1.304-0.519-2.621-0.313-3.893c0.207-1.284,0.721-2.507,1.531-3.617c0.819-1.122,1.825-1.986,2.969-2.567l0.003,0.004
				l0.008-0.004c1.164-0.59,2.451-0.899,3.813-0.899h218.26c0.388,0,0.775,0.027,1.188,0.088
				C314.208,128.788,314.588,128.873,315.002,128.995z"/>
			
				<linearGradient id="SVGID_00000132065283023683154830000012365798435085470391_" gradientUnits="userSpaceOnUse" x1="400.1753" y1="169.4734" x2="400.1788" y2="162.6495">
				<stop  offset="0" style="stop-color:#FFFFFF"/>
				<stop  offset="1" style="stop-color:#2B0C28"/>
			</linearGradient>
			<path style="fill-rule:evenodd;clip-rule:evenodd;fill:url(#SVGID_00000132065283023683154830000012365798435085470391_);" d="
				M396.298,171.52l1.979-9.672c0.041-0.202,0.06-0.405,0.055-0.604l5.595-1.431c0.182,1.024,0.176,2.099-0.044,3.179l-1.965,9.597
				L396.298,171.52z"/>
			
				<linearGradient id="SVGID_00000107577913619001893080000004500163343451099823_" gradientUnits="userSpaceOnUse" x1="394.7639" y1="192.0663" x2="397.3548" y2="188.1386">
				<stop  offset="0" style="stop-color:#FFFFFF"/>
				<stop  offset="1" style="stop-color:#2B0C28"/>
			</linearGradient>
			
				<polygon style="fill-rule:evenodd;clip-rule:evenodd;fill:url(#SVGID_00000107577913619001893080000004500163343451099823_);" points="
				392.195,191.568 393.519,185.1 398.928,187.2 396.728,197.942 			"/>
			
				<linearGradient id="SVGID_00000172406608535177900980000010034327413834973569_" gradientUnits="userSpaceOnUse" x1="376.6487" y1="149.529" x2="374.9745" y2="147.6241">
				<stop  offset="0" style="stop-color:#FFFFFF"/>
				<stop  offset="1" style="stop-color:#2B0C28"/>
			</linearGradient>
			
				<polygon style="fill-rule:evenodd;clip-rule:evenodd;fill:url(#SVGID_00000172406608535177900980000010034327413834973569_);" points="
				375.259,152.549 371.715,151.515 374.397,146.34 382.641,148.747 			"/>
			
				<linearGradient id="SVGID_00000095340665689781364380000006538058536470903963_" gradientUnits="userSpaceOnUse" x1="193.0531" y1="322.2675" x2="186.1474" y2="306.587">
				<stop  offset="0" style="stop-color:#FFFFFF"/>
				<stop  offset="1" style="stop-color:#090827"/>
			</linearGradient>
			<path style="fill-rule:evenodd;clip-rule:evenodd;fill:url(#SVGID_00000095340665689781364380000006538058536470903963_);" d="
				M132.31,264.453l7.988,24.97c0.144,0.44,0.382,0.809,0.692,1.097c0.361,0.334,0.827,0.581,1.366,0.737l91.328,26.315
				l-5.656,1.354l-10.541-0.077l-76.701-22.1c-0.725-0.209-1.407-0.489-2.038-0.839L132.31,264.453z"/>
			
				<linearGradient id="SVGID_00000140724616460260017940000002487928312896349065_" gradientUnits="userSpaceOnUse" x1="262.3419" y1="131.5179" x2="231.8879" y2="131.5206">
				<stop  offset="0" style="stop-color:#FFFFFF"/>
				<stop  offset="1" style="stop-color:#1A193C"/>
			</linearGradient>
			
				<rect x="245.131" y="128.648" style="fill-rule:evenodd;clip-rule:evenodd;fill:url(#SVGID_00000140724616460260017940000002487928312896349065_);" width="30.876" height="5.74"/>
			
				<linearGradient id="SVGID_00000140693117509949538880000002381043689143502724_" gradientUnits="userSpaceOnUse" x1="106.6956" y1="193.7973" x2="104.5909" y2="187.1279">
				<stop  offset="0" style="stop-color:#FFFFFF"/>
				<stop  offset="1" style="stop-color:#1A193C"/>
			</linearGradient>
			<path style="fill-rule:evenodd;clip-rule:evenodd;fill:url(#SVGID_00000140693117509949538880000002381043689143502724_);" d="
				M105.69,181.235l4.38,13.692l-5.538,1.449l-2.986-9.335C102.663,185.525,104.177,183.393,105.69,181.235z"/>
			
				<linearGradient id="SVGID_00000183207324418250506990000010643836180118573223_" gradientUnits="userSpaceOnUse" x1="143.0257" y1="308.3641" x2="356.7456" y2="226.7631">
				<stop  offset="0" style="stop-color:#2B0C28"/>
				<stop  offset="1" style="stop-color:#E7350F"/>
			</linearGradient>
			<path style="fill-rule:evenodd;clip-rule:evenodd;fill:url(#SVGID_00000183207324418250506990000010643836180118573223_);" d="
				M65.502,215.265L284.041,155.2c0.436-0.121,0.825-0.173,1.279-0.173h78.383c2.268,0,4.179,1.512,4.701,3.719l34.198,144.722
				l6.564,26.007c0,0-9.478-17.06-33.973-17.06l0.239-0.079l-267.791-1.959c-1.893-0.015-3.507-1.041-4.323-2.749l-40.895-85.624
				c-0.638-1.336-0.65-2.742-0.035-4.089C63.004,216.568,64.074,215.656,65.502,215.265z"/>
			
				<linearGradient id="SVGID_00000084518162413194294850000001806491195471705003_" gradientUnits="userSpaceOnUse" x1="112.5249" y1="300.74" x2="370.9027" y2="202.088">
				<stop  offset="0" style="stop-color:#2B0C28"/>
				<stop  offset="1" style="stop-color:#E84A0A"/>
			</linearGradient>
			<path style="fill-rule:evenodd;clip-rule:evenodd;fill:url(#SVGID_00000084518162413194294850000001806491195471705003_);" d="
				M334.977,155.027h28.726c1.804,0,3.383,0.957,4.217,2.459L195.816,311.022l-35.409-0.259L334.977,155.027L334.977,155.027z
				 M372.363,175.502L220.252,311.2l23.606,0.173l132.648-118.336L372.363,175.502z"/>
			
				<linearGradient id="SVGID_00000002377783120960188920000014721123866423465371_" gradientUnits="userSpaceOnUse" x1="357.8828" y1="276.3572" x2="357.8847" y2="308.9417">
				<stop  offset="0" style="stop-color:#2B0C28"/>
				<stop  offset="1" style="stop-color:#E7350F"/>
			</linearGradient>
			<path style="fill-rule:evenodd;clip-rule:evenodd;fill:url(#SVGID_00000002377783120960188920000014721123866423465371_);" d="
				M386.032,233.341l14.614,61.847l-81.248,0.759c-1.322,0.013-2.525-0.563-3.35-1.597c-0.822-1.03-1.114-2.334-0.811-3.617
				l14.51-61.402c0.454-1.924,2.147-3.264,4.126-3.264h32.559c0.473,0,0.888,0.048,1.335,0.221L386.032,233.341z"/>
			
				<linearGradient id="SVGID_00000052080043411221743320000000995089666710660025_" gradientUnits="userSpaceOnUse" x1="258.9988" y1="108.121" x2="112.5391" y2="182.907">
				<stop  offset="0" style="stop-color:#765CA4"/>
				<stop  offset="1" style="stop-color:#534095"/>
			</linearGradient>
			<path style="fill-rule:evenodd;clip-rule:evenodd;fill:url(#SVGID_00000052080043411221743320000000995089666710660025_);" d="
				M274.941,146.326c3.303-0.866,6.826-4.673,7.835-8.465l11.478-43.235c1.007-3.791-0.873-6.186-4.175-5.321
				c-79.516,20.795-87.721,22.944-174.234,45.57c-3.301,0.862-6.828,4.67-7.833,8.461l-11.48,43.237l-0.002,0.009l-3.155,11.885
				c0,0,2.111-5.206,10.087-7.293L274.941,146.326z"/>
			
				<linearGradient id="SVGID_00000133489500945543643110000009743134780336564639_" gradientUnits="userSpaceOnUse" x1="393.6674" y1="303.6935" x2="349.5907" y2="232.7135">
				<stop  offset="0" style="stop-color:#EA6001"/>
				<stop  offset="1" style="stop-color:#F39D00"/>
			</linearGradient>
			<path style="fill-rule:evenodd;clip-rule:evenodd;fill:url(#SVGID_00000133489500945543643110000009743134780336564639_);" d="
				M428.022,244.815c1.172,0.358,2.095,1.169,2.606,2.289c0.53,1.16,0.519,2.438-0.031,3.588
				c-6.786,14.209-13.333,31.648-22.77,44.356v0.001c1.931-5.883-2.63-6.334-6.886-6.294l-85.804,0.802
				c-1.322,0.012-2.525-0.563-3.35-1.598c-0.822-1.031-1.114-2.334-0.811-3.617l14.51-61.402c0.454-1.924,2.147-3.265,4.126-3.265
				h32.558c0.474,0,0.889,0.05,1.337,0.222L428.022,244.815z"/>
			
				<linearGradient id="SVGID_00000173138591619953541240000013373283720738525061_" gradientUnits="userSpaceOnUse" x1="386.2979" y1="321.0011" x2="335.6599" y2="239.455">
				<stop  offset="0" style="stop-color:#EA6001"/>
				<stop  offset="1" style="stop-color:#F5AB1E"/>
			</linearGradient>
			<path style="fill-rule:evenodd;clip-rule:evenodd;fill:url(#SVGID_00000173138591619953541240000013373283720738525061_);" d="
				M395.572,288.806l-17.94,0.168l-55.954-49.916l3.157-13.356L395.572,288.806L395.572,288.806z M365.252,289.089l-45.75-40.813
				l-2.104,8.902l35.894,32.022L365.252,289.089z"/>
			<g>
				
					<linearGradient id="SVGID_00000006707775239315018280000010626456248367489951_" gradientUnits="userSpaceOnUse" x1="82.9955" y1="344.2077" x2="131.4314" y2="313.6416">
					<stop  offset="0" style="stop-color:#2B0C28"/>
					<stop  offset="1" style="stop-color:#E7350F"/>
				</linearGradient>
				
					<polygon style="fill-rule:evenodd;clip-rule:evenodd;fill:url(#SVGID_00000006707775239315018280000010626456248367489951_);" points="
					83.535,356.422 126.347,315.772 90.828,326.71 86.495,331.063 				"/>
				
					<linearGradient id="SVGID_00000127038836723906824390000006873756006362140083_" gradientUnits="userSpaceOnUse" x1="72.7736" y1="341.528" x2="109.5721" y2="307.9924">
					<stop  offset="0" style="stop-color:#2B0C28"/>
					<stop  offset="1" style="stop-color:#E7350F"/>
				</linearGradient>
				
					<polygon style="fill-rule:evenodd;clip-rule:evenodd;fill:url(#SVGID_00000127038836723906824390000006873756006362140083_);" points="
					69.354,321.578 126.347,315.772 88.532,330.222 82.319,332.788 				"/>
				
					<linearGradient id="SVGID_00000056391473657148256640000012322732893583660457_" gradientUnits="userSpaceOnUse" x1="64.9353" y1="340.7193" x2="87.437" y2="337.358">
					<stop  offset="0" style="stop-color:#2B0C28"/>
					<stop  offset="1" style="stop-color:#E7350F"/>
				</linearGradient>
				
					<polygon style="fill-rule:evenodd;clip-rule:evenodd;fill:url(#SVGID_00000056391473657148256640000012322732893583660457_);" points="
					69.354,321.578 83.535,356.422 88.532,330.222 				"/>
			</g>
			<g>
				
					<linearGradient id="SVGID_00000172418496508717021100000001402616093279313574_" gradientUnits="userSpaceOnUse" x1="130.8459" y1="361.4742" x2="135.3553" y2="322.3009">
					<stop  offset="0" style="stop-color:#2B0C28"/>
					<stop  offset="1" style="stop-color:#E7350F"/>
				</linearGradient>
				
					<polygon style="fill-rule:evenodd;clip-rule:evenodd;fill:url(#SVGID_00000172418496508717021100000001402616093279313574_);" points="
					137.798,367.95 134.318,325.569 124.418,350.441 124.904,354.839 				"/>
				
					<linearGradient id="SVGID_00000086662787146425385140000000556493256552435385_" gradientUnits="userSpaceOnUse" x1="124.8472" y1="371.5865" x2="122.4796" y2="333.1252">
					<stop  offset="0" style="stop-color:#2B0C28"/>
					<stop  offset="1" style="stop-color:#E7350F"/>
				</linearGradient>
				
					<polygon style="fill-rule:evenodd;clip-rule:evenodd;fill:url(#SVGID_00000086662787146425385140000000556493256552435385_);" points="
					111.841,360.175 134.318,325.569 125.352,353.315 123.986,357.961 				"/>
				
					<linearGradient id="SVGID_00000039116222844329106170000000095954805416648126_" gradientUnits="userSpaceOnUse" x1="122.1896" y1="368.559" x2="127.7735" y2="359.0129">
					<stop  offset="0" style="stop-color:#2B0C28"/>
					<stop  offset="1" style="stop-color:#E7350F"/>
				</linearGradient>
				
					<polygon style="fill-rule:evenodd;clip-rule:evenodd;fill:url(#SVGID_00000039116222844329106170000000095954805416648126_);" points="
					111.841,360.175 137.798,367.95 125.352,353.315 				"/>
			</g>
			<g>
				
					<linearGradient id="SVGID_00000071543593210380581810000017762326763148915850_" gradientUnits="userSpaceOnUse" x1="426.5943" y1="142.17" x2="375.517" y2="168.0856">
					<stop  offset="0" style="stop-color:#2B0C28"/>
					<stop  offset="1" style="stop-color:#E7350F"/>
				</linearGradient>
				
					<polygon style="fill-rule:evenodd;clip-rule:evenodd;fill:url(#SVGID_00000071543593210380581810000017762326763148915850_);" points="
					427.196,129.958 380.778,166.439 417.164,158.861 421.883,154.931 				"/>
				
					<linearGradient id="SVGID_00000161607987409945874350000013099266213906321559_" gradientUnits="userSpaceOnUse" x1="436.6129" y1="145.722" x2="396.7651" y2="175.7404">
					<stop  offset="0" style="stop-color:#2B0C28"/>
					<stop  offset="1" style="stop-color:#E7350F"/>
				</linearGradient>
				
					<polygon style="fill-rule:evenodd;clip-rule:evenodd;fill:url(#SVGID_00000161607987409945874350000013099266213906321559_);" points="
					438.064,165.973 380.778,166.439 419.777,155.578 426.202,153.604 				"/>
				
					<linearGradient id="SVGID_00000139259503650209945170000006692672025949501607_" gradientUnits="userSpaceOnUse" x1="448.3964" y1="147.0999" x2="421.3244" y2="148.5868">
					<stop  offset="0" style="stop-color:#2B0C28"/>
					<stop  offset="1" style="stop-color:#E7350F"/>
				</linearGradient>
				
					<polygon style="fill-rule:evenodd;clip-rule:evenodd;fill:url(#SVGID_00000139259503650209945170000006692672025949501607_);" points="
					438.064,165.973 427.196,129.958 419.777,155.578 				"/>
			</g>
			<g>
				
					<linearGradient id="SVGID_00000086664257398659911640000009230081448238181557_" gradientUnits="userSpaceOnUse" x1="380.3221" y1="125.1151" x2="369.3863" y2="155.5522">
					<stop  offset="0" style="stop-color:#2B0C28"/>
					<stop  offset="1" style="stop-color:#E7350F"/>
				</linearGradient>
				
					<polygon style="fill-rule:evenodd;clip-rule:evenodd;fill:url(#SVGID_00000086664257398659911640000009230081448238181557_);" points="
					376.257,117.325 370.946,152.849 383.885,134.304 384.333,130.594 				"/>
				
					<linearGradient id="SVGID_00000121278488213789128360000004010972527931049632_" gradientUnits="userSpaceOnUse" x1="387.8261" y1="115.5524" x2="382.008" y2="149.6851">
					<stop  offset="0" style="stop-color:#2B0C28"/>
					<stop  offset="1" style="stop-color:#E7350F"/>
				</linearGradient>
				
					<polygon style="fill-rule:evenodd;clip-rule:evenodd;fill:url(#SVGID_00000121278488213789128360000004010972527931049632_);" points="
					396.103,128.724 370.946,152.849 383.671,131.76 385.689,128.203 				"/>
				
					<linearGradient id="SVGID_00000152236116511246142830000007447077663046487177_" gradientUnits="userSpaceOnUse" x1="388.2964" y1="120.7958" x2="382.5019" y2="126.8973">
					<stop  offset="0" style="stop-color:#2B0C28"/>
					<stop  offset="1" style="stop-color:#E7350F"/>
				</linearGradient>
				
					<polygon style="fill-rule:evenodd;clip-rule:evenodd;fill:url(#SVGID_00000152236116511246142830000007447077663046487177_);" points="
					396.103,128.724 376.257,117.325 383.671,131.76 				"/>
			</g>
			<g>
				
					<linearGradient id="SVGID_00000046298025899434042520000007900638525843081874_" gradientUnits="userSpaceOnUse" x1="423.0895" y1="192.0866" x2="385.5824" y2="182.4711">
					<stop  offset="0" style="stop-color:#2B0C28"/>
					<stop  offset="1" style="stop-color:#E7350F"/>
				</linearGradient>
				
					<polygon style="fill-rule:evenodd;clip-rule:evenodd;fill:url(#SVGID_00000046298025899434042520000007900638525843081874_);" points="
					431.44,186.333 388.978,184.02 412.274,197.208 416.696,197.325 				"/>
				
					<linearGradient id="SVGID_00000006697366426923057810000002027914823137214634_" gradientUnits="userSpaceOnUse" x1="435.674" y1="199.8371" x2="394.0452" y2="196.7146">
					<stop  offset="0" style="stop-color:#2B0C28"/>
					<stop  offset="1" style="stop-color:#E7350F"/>
				</linearGradient>
				
					<polygon style="fill-rule:evenodd;clip-rule:evenodd;fill:url(#SVGID_00000006697366426923057810000002027914823137214634_);" points="
					420.209,210.992 388.978,184.02 415.249,196.675 419.664,198.658 				"/>
				
					<linearGradient id="SVGID_00000129920424105288459540000015705016640107381396_" gradientUnits="userSpaceOnUse" x1="429.0349" y1="201.1829" x2="421.0279" y2="194.8961">
					<stop  offset="0" style="stop-color:#2B0C28"/>
					<stop  offset="1" style="stop-color:#E7350F"/>
				</linearGradient>
				
					<polygon style="fill-rule:evenodd;clip-rule:evenodd;fill:url(#SVGID_00000129920424105288459540000015705016640107381396_);" points="
					420.209,210.992 431.44,186.333 415.249,196.675 				"/>
			</g>
			
				<linearGradient id="SVGID_00000160912035537910747790000014854315842423211694_" gradientUnits="userSpaceOnUse" x1="297.8871" y1="107.4949" x2="217.7943" y2="146.079">
				<stop  offset="0" style="stop-color:#917AB5"/>
				<stop  offset="1" style="stop-color:#644899"/>
			</linearGradient>
			<path style="fill-rule:evenodd;clip-rule:evenodd;fill:url(#SVGID_00000160912035537910747790000014854315842423211694_);" d="
				M222.565,160.023l71.188-63.506l0.502-1.892c1.007-3.791-0.873-6.186-4.175-5.321l-9.42,2.463l-84.148,75.07L222.565,160.023
				L222.565,160.023z M285.998,125.725l-28.084,25.053l-17.369,4.542l49.263-43.946L285.998,125.725z"/>
			
				<linearGradient id="SVGID_00000026874675294727329780000004909402291607020185_" gradientUnits="userSpaceOnUse" x1="369.6383" y1="317.7823" x2="369.6398" y2="310.3612">
				<stop  offset="0" style="stop-color:#FFFFFF"/>
				<stop  offset="1" style="stop-color:#2B0C28"/>
			</linearGradient>
			<path style="fill-rule:evenodd;clip-rule:evenodd;fill:url(#SVGID_00000026874675294727329780000004909402291607020185_);" d="
				M367.49,312.278l-1.532,7.488l2.009,0.015l-0.238,0.078c1.387,0,2.725,0.055,4.017,0.158l1.574-7.697L367.49,312.278z"/>
			<text transform="matrix(0.8717 -0.2317 -0.3044 0.9525 112.2354 173.2396)"><tspan x="0" y="0" style="fill:#FFFFFF; font-family:'BebasKai'; font-size:37.5334px;">S</tspan><tspan x="13.399" y="0" style="fill:#FFFFFF; font-family:'BebasKai'; font-size:37.5334px;">PECIAL OFFER</tspan></text>
			<text transform="matrix(1 0 0 1 328.1753 279.4175)"><tspan x="0" y="0" style="fill:#FFFFFF; font-family:'Bebas'; font-size:45.5763px;">7</tspan><tspan x="23.38" y="0" style="fill:#FFFFFF; font-family:'Bebas'; font-size:45.5763px;">5 </tspan></text>
			<text transform="matrix(1.2488 0 0 1 376.0093 278.3374)"><tspan x="0" y="0" style="fill:#FFFFFF; font-family:'BebasKai'; font-size:26.8096px;">%</tspan><tspan x="15.549" y="0" style="fill:#FFFFFF; font-family:'BebasKai'; font-size:26.8096px;"> </tspan></text>
			<text transform="matrix(1 0 0 1 375.772 255.9536)"><tspan x="0" y="0" style="fill:#FFFFFF; font-family:'Bebas'; font-size:19.7729px;">O</tspan><tspan x="13.623" y="0" style="fill:#FFFFFF; font-family:'Bebas'; font-size:19.7729px;">FF</tspan></text>
			<text transform="matrix(1 0 0 1 123.9292 290.5376)"><tspan x="0" y="0" style="fill:#FFFFFF; font-family:'Bebas'; font-size:83.1097px;">S</tspan><tspan x="40.973" y="0" style="fill:#FFFFFF; font-family:'Bebas'; font-size:83.1097px;">ALE</tspan></text>
			<text transform="matrix(1 0 0 1 266.6792 200.981)"><tspan x="0" y="0" style="fill:#FFFFFF; font-family:'Bebas'; font-size:32.1715px;">S</tspan><tspan x="15.861" y="0" style="fill:#FFFFFF; font-family:'Bebas'; font-size:32.1715px;">UPER</tspan></text>
		</g>
		<g style="opacity:0.5;">
			
				<radialGradient id="SVGID_00000003806015069277593620000001980949054416106167_" cx="238.1894" cy="469.3247" r="74.6609" gradientTransform="matrix(2.1652 0 0 0.1786 -265.7279 313.7172)" gradientUnits="userSpaceOnUse">
				<stop  offset="0" style="stop-color:#000000"/>
				<stop  offset="1" style="stop-color:#000000;stop-opacity:0"/>
			</radialGradient>
			<path style="opacity:0.3;fill:url(#SVGID_00000003806015069277593620000001980949054416106167_);" d="M411.667,397.538
				c0,7.364-72.381,13.334-161.669,13.334c-89.284,0-161.666-5.97-161.666-13.334c0-7.363,72.382-13.333,161.666-13.333
				C339.286,384.205,411.667,390.175,411.667,397.538z"/>
			
				<radialGradient id="SVGID_00000170273839833570644110000016367702279206029703_" cx="238.1902" cy="464.4664" r="29.8691" gradientTransform="matrix(3.8504 0 0 0.2678 -667.1279 273.1545)" gradientUnits="userSpaceOnUse">
				<stop  offset="0" style="stop-color:#000000"/>
				<stop  offset="1" style="stop-color:#000000;stop-opacity:0"/>
			</radialGradient>
			<path style="opacity:0.3;fill:url(#SVGID_00000170273839833570644110000016367702279206029703_);" d="M365,397.538
				c0,4.419-51.487,8-115.002,8c-63.51,0-114.999-3.581-114.999-8c0-4.418,51.489-7.999,114.999-7.999
				C313.513,389.539,365,393.12,365,397.538z"/>
		</g>
	</g>
</g>
</svg>
